<?xml version="1.0" standalone="no"?>
<!DOCTYPE svg PUBLIC "-//W3C//DTD SVG 20010904//EN"
 "http://www.w3.org/TR/2001/REC-SVG-20010904/DTD/svg10.dtd">
<svg version="1.0" xmlns="http://www.w3.org/2000/svg"
 width="700.000000pt" height="700.000000pt" viewBox="0 0 700.000000 700.000000"
 preserveAspectRatio="xMidYMid meet">
<metadata>
Created by potrace 1.11, written by Peter Selinger 2001-2013
</metadata>
<g transform="translate(0.000000,700.000000) scale(0.100000,-0.100000)"
fill="#000000" stroke="none">
<path d="M2371 4729 c-242 -47 -422 -253 -430 -491 -13 -380 413 -643 769
-476 139 66 234 169 280 307 88 263 -61 546 -337 642 -65 22 -211 32 -282 18z
m214 -295 c40 -19 92 -68 112 -108 23 -43 25 -139 5 -186 -40 -94 -119 -144
-227 -145 -58 0 -78 5 -116 27 -59 35 -100 89 -114 152 -27 119 35 230 152
272 46 16 141 10 188 -12z"/>
<path d="M4125 4700 c-163 -28 -289 -79 -411 -165 -142 -101 -256 -270 -291
-433 -10 -45 -11 -1161 -1 -1218 31 -182 183 -383 368 -487 97 -54 228 -99
351 -120 82 -15 319 -16 382 -3 15 3 39 8 55 11 91 16 192 46 272 83 59 27
210 122 210 132 0 3 -11 21 -25 40 -14 19 -25 40 -25 47 0 7 -4 13 -10 13 -5
0 -10 4 -10 9 0 4 -35 65 -79 134 l-78 126 -34 -26 c-19 -14 -70 -42 -114 -63
-197 -93 -428 -101 -584 -21 -58 30 -134 107 -164 167 -46 91 -49 129 -45 599
3 433 3 441 26 494 50 118 125 189 242 232 109 40 308 33 453 -16 68 -23 161
-74 197 -107 18 -17 23 -11 135 168 133 214 132 189 11 263 -89 55 -208 104
-281 117 -16 3 -46 9 -65 14 -114 28 -349 33 -485 10z"/>
</g>
</svg>
